<svg viewBox="0 0 16 16" xmlns="http://www.w3.org/2000/svg" aria-hidden="true" role="presentation" focusable="false" style="display: block; height: 12px; width: 12px; fill: currentcolor;" fill="#222222" stroke="null" stroke-width="1px" stroke-linecap="butt" stroke-linejoin="miter" stroke-dashoffset="0px" opacity="1" fill-opacity="1" stroke-opacity="1" font-family="&quot;Airbnb Cereal VF&quot;, Circular, -apple-system, &quot;system-ui&quot;, Roboto, &quot;Helvetica Neue&quot;, sans-serif" font-size="16px" font-weight="400" text-anchor="start" dominant-baseline="auto" stop-color="#000000" stop-opacity="1" width="12" height="12"><path d="m3.21684098 6.36820948c.69286.63327.95745 1.53818.79375 2.71472-1.28708.14974-2.27704-.09198-2.96991-.72524-.692873-.63329-.95745494-1.53818-.793752-2.71471 1.287062-.14979 2.277042.09195 2.969912.72523zm.01823-5.61820948c1.0236.743338 1.54043 1.567488 1.55049 2.472468.01006.90497-.48856 1.71941-1.49585 2.44334-1.02358-.74338-1.54042-1.56751-1.55048-2.47247-.01006-.90499.48856-1.71942 1.49584-2.443338zm-2.524114 9.883578c1.034374-.7302 2.021244-.98278 2.960614-.75762.63073992.1511584 1.15987526.4985198 1.58740902 1.0419992l-.07821789-.02145c1.39197832.3681397 2.20787023 1.0733199 2.19755429 2.1491723-.00983089 1.0237908-.74501936 1.7707365-2.02138366 2.256627l-.53366353-1.401857c.7621544-.2901395 1.05238772-.5850143 1.05511624-.8691626.00211728-.220812-.24880712-.4483858-.96854292-.6537179-.71044194.3168616-1.39543503.3952123-2.05688155.236709-.93937-.2252-1.65337-.8854-2.142004-1.9807zm15.10285402-4.99059852c.1637 1.17653-.1009 2.08142-.7937 2.71471-.6929.63326-1.6829.87498-2.9699.72524-.1637-1.17654.1009-2.08145.7937-2.71472.6929-.63328 1.6829-.87502 2.9699-.72523zm-2.9881-4.89297948c1.0073.723918 1.5059 1.538348 1.4958 2.443338-.01.90496-.5269 1.72909-1.5505 2.47247-1.0072-.72393-1.5059-1.53837-1.4958-2.44334.0101-.90498.5269-1.72913 1.5505-2.472468zm2.5239 9.883578c-.4887 1.0953-1.2027 1.7555-2.1421 1.9807-.6614043.1585033-1.3464097.0801526-2.0549813-.2350171l.1110343-.0326099c-.8063957.2132596-1.0834017.4526742-1.0811775.684637.0027242.284151.2929566.579019 1.0551448.8691571l-.5336407 1.4018658c-1.27641442-.4858858-2.01161974-1.2328341-2.02143515-2.2566418-.01011718-1.0551234.77444821-1.7537176 2.11778055-2.1275085.4288532-.5436828.9579753-.8910442 1.588675-1.0422026.9394-.22516 1.9263.02742 2.9607.75762z" fill="#222222" stroke="null" stroke-width="1px" stroke-linecap="butt" stroke-linejoin="miter" stroke-dashoffset="0px" opacity="1" fill-opacity="1" stroke-opacity="1" font-family="&quot;Airbnb Cereal VF&quot;, Circular, -apple-system, &quot;system-ui&quot;, Roboto, &quot;Helvetica Neue&quot;, sans-serif" font-size="16px" font-weight="400" text-anchor="start" dominant-baseline="auto" stop-color="#000000" stop-opacity="1"></path></svg>